
      <svg data-logo="logo" xmlns="http://www.w3.org/2000/svg" viewBox="0 0 164 42">
        <g id="logogram" transform="translate(0, 1) rotate(0) "><path d="M20 0C25.3043 4.00466e-07 30.3919 2.10669 34.1426 5.85742C34.8157 6.53058 35.4354 7.24719 36 8H20C16.8174 8 13.7651 9.26421 11.5146 11.5146C9.26421 13.7651 8 16.8174 8 20H20L36.9102 9.31934C38.1656 11.3074 39.0611 13.5027 39.5547 15.8027L32 20H40L39.9941 20.4971C39.8669 25.6213 37.776 30.5092 34.1426 34.1426C30.3919 37.8933 25.3043 40 20 40C14.6957 40 9.60815 37.8933 5.85742 34.1426C5.18426 33.4694 4.56459 32.7528 4 32H20C23.1826 32 26.2349 30.7358 28.4854 28.4854C30.5952 26.3755 31.8383 23.5608 31.9854 20.5947L32 20H20L3.08984 30.6787C1.83452 28.6906 0.941002 26.4951 0.447266 24.1953L8 20H0C8.00931e-07 14.6957 2.1067 9.60815 5.85742 5.85742C9.60815 2.1067 14.6957 -5.79361e-10 20 0Z" fill="#0094F7"/></g>
        <g id="logotype" transform="translate(46, 8.5)"><path fill="#0094F7" d="M11.53 25L7.75 21.22L7.75 17.72L12.44 17.72L12.44 19.79L13.60 20.94L20.84 20.94L22.03 19.75L22.03 15.69L20.88 14.53L11.60 14.53L7.82 10.75L7.82 4.28L11.60 0.50L22.66 0.50L26.44 4.28L26.44 7.81L21.75 7.81L21.75 5.71L20.59 4.56L13.67 4.56L12.51 5.71L12.51 9.32L13.67 10.47L22.94 10.47L26.72 14.25L26.72 21.15L22.87 25L11.53 25ZM34.31 25L30.71 21.43L30.71 11.45L27.56 11.45L27.56 7.57L30.78 7.57L30.78 1.90L35.33 1.90L35.33 7.57L40.65 7.57L40.65 11.49L35.33 11.49L35.33 19.93L36.52 21.08L40.65 21.08L40.65 25L34.31 25ZM45.45 25L41.84 21.36L41.84 11.21L45.45 7.57L55.46 7.57L59.06 11.21L59.06 21.36L55.46 25L45.45 25ZM47.69 21.15L53.22 21.15L54.44 19.93L54.44 12.64L53.22 11.42L47.69 11.42L46.46 12.64L46.46 19.93L47.69 21.15ZM65.19 25L61.65 21.43L61.65 11.14L65.19 7.57L74.78 7.57L78.38 11.21L78.38 14.43L73.76 14.43L73.76 12.71L72.54 11.49L67.50 11.49L66.27 12.71L66.27 19.86L67.50 21.08L72.54 21.08L73.76 19.86L73.76 18.14L78.38 18.14L78.38 21.36L74.78 25L65.19 25ZM80.62 25L80.62 0.01L85.24 0.01L85.24 13.97L88.29 13.97L92.73 7.57L97.84 7.57L92.03 15.97L98.19 25L93.08 25L88.18 17.89L85.24 17.89L85.24 25L80.62 25ZM98.51 25L98.51 21.22L111.07 4.56L111.07 4.49L98.86 4.49L98.86 0.50L116.78 0.50L116.78 4.28L104.21 20.94L104.21 21.01L116.78 21.01L116.78 25L98.51 25Z"/></g>
        
      </svg>
    